<svg xmlns="http://www.w3.org/2000/svg" width="25" height="25" viewBox="0 0 25 25" id="menu">
  <path d="M8.607 3.027H6.48a3.5 3.5 0 0 0-3.5 3.5v2a3.5 3.5 0 0 0 3.5 3.5H8.607a3.5 3.5 0 0 0 3.5-3.5v-2A3.5 3.5 0 0 0 8.607 3.027zm2.5 5.5a2.5 2.5 0 0 1-2.5 2.5H6.48a2.5 2.5 0 0 1-2.5-2.5v-2a2.5 2.5 0 0 1 2.5-2.5H8.607a2.5 2.5 0 0 1 2.5 2.5zM7.607 12.973H7.48a4.5 4.5 0 0 0 0 9h.127a4.5 4.5 0 0 0 0-9zM17.393 12.027h.148a4.5 4.5 0 1 0 0-9h-.148a4.5 4.5 0 0 0 0 9zm0-8h.148a3.5 3.5 0 1 1 0 7h-.148a3.5 3.5 0 0 1 0-7zM18.541 12.973H16.393a3.5 3.5 0 0 0-3.5 3.5v2a3.5 3.5 0 0 0 3.5 3.5h2.148a3.5 3.5 0 0 0 3.5-3.5v-2A3.5 3.5 0 0 0 18.541 12.973zm2.5 5.5a2.5 2.5 0 0 1-2.5 2.5H16.393a2.5 2.5 0 0 1-2.5-2.5v-2a2.5 2.5 0 0 1 2.5-2.5h2.148a2.5 2.5 0 0 1 2.5 2.5z"/>
</svg>