<svg xmlns="http://www.w3.org/2000/svg" fill="none" viewBox="0 0 24 24" id="RestartSquare">
  <path fill="#8526fe" fill-rule="evenodd" d="M11.9426 1.25H12.0574C14.3658 1.24999 16.1748 1.24998 17.5863 1.43975C19.031 1.63399 20.1711 2.03933 21.0659 2.93414C21.9607 3.82895 22.366 4.96897 22.5603 6.41371C22.75 7.82519 22.75 9.63423 22.75 11.9426V12.0574C22.75 14.3658 22.75 16.1748 22.5603 17.5863C22.366 19.031 21.9607 20.1711 21.0659 21.0659C20.1711 21.9607 19.031 22.366 17.5863 22.5603C16.1748 22.75 14.3658 22.75 12.0574 22.75H11.9426C9.63423 22.75 7.82519 22.75 6.41371 22.5603C4.96897 22.366 3.82895 21.9607 2.93414 21.0659C2.03933 20.1711 1.63399 19.031 1.43975 17.5863C1.24998 16.1748 1.24999 14.3658 1.25 12.0574V11.9426C1.24999 9.63423 1.24998 7.82519 1.43975 6.41371C1.63399 4.96897 2.03933 3.82895 2.93414 2.93414C3.82895 2.03933 4.96897 1.63399 6.41371 1.43975C7.82519 1.24998 9.63423 1.24999 11.9426 1.25ZM6.61358 2.92637C5.33517 3.09825 4.56445 3.42514 3.9948 3.9948C3.42514 4.56445 3.09825 5.33517 2.92637 6.61358C2.75159 7.91356 2.75 9.62177 2.75 12C2.75 14.3782 2.75159 16.0864 2.92637 17.3864C3.09825 18.6648 3.42514 19.4355 3.9948 20.0052C4.56445 20.5749 5.33517 20.9018 6.61358 21.0736C7.91356 21.2484 9.62177 21.25 12 21.25C14.3782 21.25 16.0864 21.2484 17.3864 21.0736C18.6648 20.9018 19.4355 20.5749 20.0052 20.0052C20.5749 19.4355 20.9018 18.6648 21.0736 17.3864C21.2484 16.0864 21.25 14.3782 21.25 12C21.25 9.62177 21.2484 7.91356 21.0736 6.61358C20.9018 5.33517 20.5749 4.56445 20.0052 3.9948C19.4355 3.42514 18.6648 3.09825 17.3864 2.92637C16.0864 2.75159 14.3782 2.75 12 2.75C9.62177 2.75 7.91356 2.75159 6.61358 2.92637Z" clip-rule="evenodd" class="color854d9c svgShape"></path><path fill="#ad59d4" fill-rule="evenodd" d="M15.9775 5.25C16.3917 5.25 16.7275 5.58579 16.7275 6V8.71452C16.7275 9.12873 16.3917 9.46452 15.9775 9.46452H13.3258C12.9116 9.46452 12.5758 9.12873 12.5758 8.71452C12.5758 8.3003 12.9116 7.96452 13.3258 7.96452H13.8844C12.298 7.15791 10.324 7.4318 9.00097 8.78618C7.33301 10.4937 7.33301 13.2692 9.00097 14.9767C10.6593 16.6744 13.3407 16.6744 14.999 14.9767C15.9667 13.9861 16.3757 12.6337 16.2166 11.333C16.1663 10.9219 16.4589 10.5478 16.87 10.4975C17.2812 10.4472 17.6552 10.7398 17.7055 11.1509C17.9168 12.8781 17.3754 14.6907 16.072 16.0249C13.8252 18.325 10.1748 18.325 7.92796 16.0249C5.69068 13.7346 5.69068 10.0283 7.92796 7.73802C9.91113 5.70783 12.9877 5.46956 15.2275 7.0232V6C15.2275 5.58579 15.5633 5.25 15.9775 5.25Z" clip-rule="evenodd" class="colorcd4ed3 svgShape">
  </path>
</svg>