<svg xmlns="http://www.w3.org/2000/svg" viewBox="0 0 64 64" id="hacker"><g data-name="hacker"><path fill="#78909c" d="M25,37H39A18,18,0,0,1,57,55v6a0,0,0,0,1,0,0H7a0,0,0,0,1,0,0V55A18,18,0,0,1,25,37Z"/><path fill="#546e7a" d="M47.74384,39.27209C36.81006,53.69116,18.0929,56.73639,7,57.18182V61H57V55A17.988,17.988,0,0,0,47.74384,39.27209Z"/><rect width="40" height="6" x="12" y="17" fill="#78909c" rx="3" ry="3"/><path fill="#546e7a" d="M49,17H48v1a2,2,0,0,1-2,2H12a3,3,0,0,0,3,3H49a3,3,0,0,0,0-6Z"/><path fill="#78909c" d="M26,3H38a8,8,0,0,1,8,8v6a0,0,0,0,1,0,0H18a0,0,0,0,1,0,0V11A8,8,0,0,1,26,3Z"/><path fill="#546e7a" d="M39.48822,3.14362A9.99874,9.99874,0,0,1,30,10H18.06909A8.04347,8.04347,0,0,0,18,11v6H46V11A7.99851,7.99851,0,0,0,39.48822,3.14362Z"/><polygon fill="#cfd8dc" points="19 34 45 34 32 57 19 34"/><polygon fill="#78909c" points="26.556 36 32 57 11 39 16 36 7 31 19 26.68 26.556 36"/><path fill="#546e7a" d="M20.13611,46.83093,32,57,26.55554,36,22.836,31.4118C23.79462,38.72052,22.47382,43.58746,20.13611,46.83093Z"/><path fill="#ffe0b2" d="M34,37H30A12,12,0,0,1,18,25V23H46v2A12,12,0,0,1,34,37Z"/><path fill="#546e7a" d="M22,23a4,4,0,0,0,8,0Z"/><polygon fill="#78909c" points="37.704 35 32 57 53 39 48 36 57 31 45 26.68 37.704 35"/><path fill="#ffcc80" d="M39.22278,23c-2.03418,8.28223-7.7909,11.79755-13.88825,13.059A11.96273,11.96273,0,0,0,30,37h4A12,12,0,0,0,46,25V23Z"/><path fill="#546e7a" d="M34,23a4,4,0,0,0,8,0Z"/><rect width="28" height="4" x="18" y="13" fill="#e53935"/><path fill="#546e7a" d="M57,31l-7.86749-2.83228c-2.52741,9.0069-8.73023,14.87561-14.46314,18.53608L32,57,53,39l-5-3Z"/><path fill="#080633" d="M52.017,41.15973l1.63385-1.40045a1,1,0,0,0-.13623-1.6167L49.999,36.0332,57.48584,31.874a1.00017,1.00017,0,0,0-.147-1.81494l-10.4054-3.74579A13.09688,13.09688,0,0,0,47,25V24h2a4,4,0,0,0,0-8H47V11a9.01047,9.01047,0,0,0-9-9H26a9.01047,9.01047,0,0,0-9,9v5H15a4,4,0,0,0,0,8h2v1a13.09688,13.09688,0,0,0,.06653,1.31329L6.66113,30.05908a1.00017,1.00017,0,0,0-.147,1.81494L14.001,36.0332l-3.51563,2.10938a1,1,0,0,0-.13623,1.6167l1.63495,1.40143A18.96867,18.96867,0,0,0,6,55v6a1,1,0,0,0,1,1H57a1,1,0,0,0,1-1V55A18.96169,18.96169,0,0,0,52.017,41.15973Zm2.57281-9.96442L47.51416,35.126a.99985.99985,0,0,0-.02881,1.73144l3.81055,2.28613L33.76709,54.168,38.1366,37.31378A13.03466,13.03466,0,0,0,46.55829,28.304ZM26,28a5.00837,5.00837,0,0,0,4.89893-4h2.20214a4.99994,4.99994,0,0,0,9.79786,0H45v1A11.01245,11.01245,0,0,1,34,36H30A11.01245,11.01245,0,0,1,19,25V24h2.10107A5.00837,5.00837,0,0,0,26,28Zm-2.82861-4h5.65722a3.00026,3.00026,0,0,1-5.65722,0Zm12,0h5.65722a3.00026,3.00026,0,0,1-5.65722,0ZM30,38h4a12.97582,12.97582,0,0,0,1.93451-.16016L32,53.01611,28.06549,37.83984A12.97582,12.97582,0,0,0,30,38ZM19,11a7.00787,7.00787,0,0,1,7-7H38a7.00787,7.00787,0,0,1,7,7v1H19Zm0,3H45v2H19Zm-4,8a2,2,0,0,1,0-4H49a2,2,0,0,1,0,4Zm1.51465,14.85742a.99985.99985,0,0,0-.02881-1.73144L9.41016,31.19531,17.44171,28.304a13.03466,13.03466,0,0,0,8.42169,9.00976L30.23291,54.168,12.7041,39.14355ZM56,60H8V55a16.95706,16.95706,0,0,1,5.529-12.51514L31.34912,57.75928a1.00031,1.00031,0,0,0,1.30176,0L50.47,42.48578A16.95015,16.95015,0,0,1,56,55Z"/><path fill="#fff" d="M11.32471 53a1.0109 1.0109 0 01-.21485-.023 1.00049 1.00049 0 01-.76318-1.19092A15.03738 15.03738 0 0113.21484 45.73a.99991.99991 0 011.57032 1.23828 13.026 13.026 0 00-2.48438 5.24561A1.00087 1.00087 0 0111.32471 53zM11 58a1 1 0 01-1-1V56a1 1 0 012 0v1A1 1 0 0111 58z"/><circle cx="42" cy="9" r="1" fill="#080633"/><circle cx="38" cy="9" r="1" fill="#080633"/><circle cx="34" cy="9" r="1" fill="#080633"/></g></svg>