<svg xmlns="http://www.w3.org/2000/svg" width="24" height="24" fill="none" viewBox="0 0 24 24" id="arrow-down">
  <path fill="url(#paint0_linear_1_396)" fill-rule="evenodd" d="M16.5644 12.0061C16.8372 12.3178 16.8056 12.7917 16.4939 13.0644L12.4939 16.5644C12.2111 16.8119 11.7889 16.8119 11.5061 16.5644L7.50612 13.0644C7.19439 12.7917 7.1628 12.3178 7.43557 12.0061C7.70833 11.6944 8.18215 11.6628 8.49388 11.9356L11.25 14.3472V8C11.25 7.58579 11.5858 7.25 12 7.25C12.4142 7.25 12.75 7.58579 12.75 8V14.3472L15.5061 11.9356C15.8178 11.6628 16.2917 11.6944 16.5644 12.0061Z" clip-rule="evenodd"/>
  <path fill="url(#paint1_linear_1_396)" fill-rule="evenodd" d="M12 3.75C9.88505 3.75 6.9945 3.94409 5.18958 4.08392C4.596 4.12991 4.12991 4.596 4.08392 5.18958C3.94409 6.9945 3.75 9.88505 3.75 12C3.75 14.115 3.94409 17.0055 4.08392 18.8104C4.12991 19.404 4.596 19.8701 5.18958 19.9161C6.9945 20.0559 9.88505 20.25 12 20.25C14.115 20.25 17.0055 20.0559 18.8104 19.9161C19.404 19.8701 19.8701 19.404 19.9161 18.8104C20.0559 17.0055 20.25 14.115 20.25 12C20.25 9.88505 20.0559 6.9945 19.9161 5.18958C19.8701 4.596 19.404 4.12991 18.8104 4.08392C17.0055 3.94409 14.115 3.75 12 3.75ZM5.07372 2.5884C6.87948 2.44851 9.82133 2.25 12 2.25C14.1787 2.25 17.1205 2.44851 18.9263 2.5884C20.2569 2.69149 21.3085 3.74313 21.4116 5.07372C21.5515 6.87948 21.75 9.82133 21.75 12C21.75 14.1787 21.5515 17.1205 21.4116 18.9263C21.3085 20.2569 20.2569 21.3085 18.9263 21.4116C17.1205 21.5515 14.1787 21.75 12 21.75C9.82133 21.75 6.87948 21.5515 5.07372 21.4116C3.74312 21.3085 2.69149 20.2569 2.5884 18.9263C2.44851 17.1205 2.25 14.1787 2.25 12C2.25 9.82133 2.44851 6.87948 2.5884 5.07372C2.69149 3.74312 3.74313 2.69149 5.07372 2.5884Z" clip-rule="evenodd"/>
  <defs>
    <linearGradient id="paint0_linear_1_396" x1="12" x2="12" y1="2.25" y2="21.75" gradientUnits="userSpaceOnUse">
      <stop stop-color="#834D9B"/>
      <stop offset="1" stop-color="#D04ED6"/>
    </linearGradient>

    <linearGradient id="paint1_linear_1_396" x1="12" x2="12" y1="2.25" y2="21.75" gradientUnits="userSpaceOnUse">
      <stop stop-color="#834D9B"/>
      <stop offset="1" stop-color="#D04ED6"/>
    </linearGradient>
  </defs>
</svg>