<svg xmlns="http://www.w3.org/2000/svg" width="32" height="32" viewBox="0 0 8.467 8.467" id="user">
  <path style="-inkscape-stroke:none" d="m 324.83414,2.8008376 a 0.26460996,0.26460996 0 0 0 -0.26407,0.2635498 v 1.3223999 a 0.2645835,0.2645835 0 0 0 0.26407,0.2656169 0.2645835,0.2645835 0 0 0 0.26561,-0.2656169 V 3.3279372 h 1.05834 a 0.2645835,0.2645835 0 0 0 0.26355,-0.2635498 0.2645835,0.2645835 0 0 0 -0.26355,-0.2635498 z m 4.49791,0 a 0.2645835,0.2645835 0 0 0 -0.26355,0.2635498 0.2645835,0.2645835 0 0 0 0.26355,0.2635498 h 1.05834 v 1.0588501 a 0.2645835,0.2645835 0 0 0 0.26561,0.2656169 0.2645835,0.2645835 0 0 0 0.26407,-0.2656169 V 3.0643874 A 0.26460996,0.26460996 0 0 0 330.656,2.8008376 Z m -1.58595,1.5409912 c -0.72748,-3.7e-6 -1.32446,0.5949051 -1.32446,1.3223999 0,0.3821706 0.16504,0.728039 0.42684,0.9704834 -0.28715,0.1158457 -0.55613,0.2894862 -0.78806,0.5214152 a 0.2645835,0.2645835 0 0 0 0,0.3731039 0.2645835,0.2645835 0 0 0 0.37517,0 c 0.34509,-0.345084 0.79013,-0.5257984 1.24023,-0.5426026 0.0233,0.00124 0.0467,0.00155 0.0703,0.00155 0.0227,-1e-7 0.0452,-3.989e-4 0.0677,-0.00155 0.45028,0.016685 0.89553,0.1973869 1.24075,0.5426026 a 0.2645835,0.2645835 0 0 0 0.37517,0 0.2645835,0.2645835 0 0 0 0,-0.3731039 c -0.23193,-0.231929 -0.50036,-0.4055695 -0.78703,-0.5214152 0.26129,-0.2424442 0.42581,-0.5883154 0.42581,-0.9704834 0,-0.72749 -0.59491,-1.3223968 -1.3224,-1.3223999 z m 0,0.5291667 c 0.44151,2e-6 0.79272,0.351725 0.79272,0.7932332 0,0.4415083 -0.35121,0.7947816 -0.79272,0.7947835 -0.44151,2.2e-6 -0.79478,-0.3532722 -0.79478,-0.7947835 0,-0.4415112 0.35327,-0.7932354 0.79478,-0.7932332 z m -2.91196,2.4256917 a 0.2645835,0.2645835 0 0 0 -0.26407,0.2656169 V 8.884704 a 0.26460996,0.26460996 0 0 0 0.26407,0.2656168 h 1.32395 a 0.2645835,0.2645835 0 0 0 0.26355,-0.2656168 0.2645835,0.2645835 0 0 0 -0.26355,-0.2635498 h -1.05834 V 7.5623041 a 0.2645835,0.2645835 0 0 0 -0.26561,-0.2656169 z m 5.82186,0 a 0.2645835,0.2645835 0 0 0 -0.26561,0.2656169 v 1.0588501 h -1.05834 a 0.2645835,0.2645835 0 0 0 -0.26355,0.2635498 0.2645835,0.2645835 0 0 0 0.26355,0.2656168 H 330.656 A 0.26460996,0.26460996 0 0 0 330.92007,8.884704 V 7.5623041 A 0.2645835,0.2645835 0 0 0 330.656,7.2966872 Z" color="#000" transform="translate(-323.512 -1.742)"/>
</svg>