<svg xmlns="http://www.w3.org/2000/svg" viewBox="0 0 32 32" id="Happy"><circle cx="16" cy="16" r="14.067" fill="#ff66f4" class="colorffd15b svgShape"/><path fill="#6d426a" d="M12.2 12.6c.332.442.958.532 1.4.2.442-.332.531-.958.2-1.4-1-1.333-2.508-1.4-2.8-1.4-1.666 0-2.625 1.166-2.8 1.4-.332.442-.242 1.069.2 1.4.18.135.391.2.599.2.304 0 .604-.138.801-.4.019-.024.458-.6 1.2-.6.031 0 .755.007 1.2.6zM23.8 11.4c-1-1.333-2.508-1.4-2.8-1.4-1.666 0-2.625 1.166-2.8 1.4-.332.442-.242 1.069.2 1.4.18.135.391.2.599.2.304 0 .604-.138.801-.4.019-.024.458-.6 1.2-.6.031 0 .755.007 1.2.6.332.442.958.532 1.4.2.442-.332.531-.958.2-1.4zM20.311 20.276c-1.634 1.556-3.559 1.724-4.311 1.724-2.257 0-3.766-1.206-4.31-1.724-.399-.38-1.032-.365-1.414.034-.381.4-.366 1.033.034 1.414.719.684 2.711 2.276 5.69 2.276.992 0 3.533-.222 5.689-2.276.4-.381.416-1.014.035-1.414s-1.014-.416-1.414-.035z" class="color6d4d42 svgShape"/></svg>