<svg xmlns="http://www.w3.org/2000/svg" version="1" viewBox="0 0 32 32" id="UpDown"><path d="M23 29c-.69 0-1.32-.356-1.686-.942l-2.729-2.729A1.99 1.99 0 0 1 18 23.915c0-.534.208-1.036.586-1.414.378-.378.88-.586 1.414-.586.356 0 .699.093 1 .267V5c0-1.103.897-2 2-2 1.102 0 2 .897 2 2v17.182a1.993 1.993 0 0 1 1-.267c.534 0 1.036.208 1.414.586.378.378.586.88.586 1.414 0 .534-.208 1.036-.586 1.414l-2.729 2.729A1.98 1.98 0 0 1 23 29zM9 29c-1.103 0-2-.897-2-2V9.818a1.993 1.993 0 0 1-1 .267 1.986 1.986 0 0 1-1.414-.586A1.986 1.986 0 0 1 4 8.085c0-.534.208-1.036.586-1.414l2.729-2.729a1.98 1.98 0 0 1 3.37 0l2.729 2.729c.378.378.586.88.586 1.414 0 .534-.208 1.036-.586 1.414-.378.378-.88.586-1.414.586-.356 0-.699-.093-1-.267V27c0 1.103-.898 2-2 2z" fill="#ff66f4" class="color000000 svgShape"/></svg>