<svg xmlns="http://www.w3.org/2000/svg" viewBox="0 0 19 20" id="Scroll"><g fill="none" fill-rule="evenodd"><g fill="#ff66f4" transform="translate(-380 -760)" class="color000000 svgShape"><g transform="translate(56 160)" fill="#ff66f4" class="color000000 svgShape"><path d="M329.277 616c-.582 0-1.055.448-1.055 1v2c0 .552.473 1 1.055 1 .583 0 1.055-.448 1.055-1v-2c0-.552-.472-1-1.055-1zm-1.055-6.657c0 .553.473 1 1.055 1 .583 0 1.055-.447 1.055-1v-5.136c0-.446.706-.669 1.039-.354l1.844 1.683c.412.39 1.142.39 1.554 0a.962.962 0 0 0 .003-1.414l-3.732-3.537a2.194 2.194 0 0 0-2.983 0l-.378.356-3.363 3.18c-.412.391-.426 1.025-.013 1.415a1.062 1.062 0 0 0 1.465 0l1.69-1.681c.333-.315.764-.092.764.354v5.134zm14.545 4.993l-4.134 2.157a1.086 1.086 0 0 1-1.33-.119.966.966 0 0 1 .137-1.517l1.258-.857h-8.964c-.583 0-1.058-.427-1.058-.98 0-.71.678-.979 1.05-.979l5.316-.008.405-4.317c.337-.957 1.287-1.527 2.331-1.329l3.75.332c.986.187 1.467 1.008 1.467 1.961v4.835c0 .329.058.634-.228.821z" fill="#ff66f4" class="color000000 svgShape"/></g></g></g></svg>