<svg xmlns="http://www.w3.org/2000/svg" data-name="Layer 1" viewBox="0 0 64 64" id="Moon">
  <path fill="#ff66f4" d="M30.89,57.93a26.44,26.44,0,0,1-17.75-6.87c.57,0,1.14,0,1.71,0a28.23,28.23,0,0,0,22.68-45,26.36,26.36,0,0,1-6.64,51.86Z" class="color003166 svgShape"/>
  <path fill="#ff66f4" d="M23.79 14.32a.75.75 0 0 0 .52-.38l1.75-3.17 1.74 3.17a.75.75 0 0 0 .52.38l3.55.68L29.4 17.64a.72.72 0 0 0-.2.61l.45 3.58L26.38 20.3a.72.72 0 0 0-.64 0l-3.28 1.53.45-3.58a.74.74 0 0 0-.19-.61L20.24 15zM8.26 29.05l.29-2.32a.74.74 0 0 0-.2-.61l-1.59-1.7L9.05 24a.78.78 0 0 0 .52-.38l1.12-2 1.13 2a.74.74 0 0 0 .51.38l2.29.43L13 26.12a.77.77 0 0 0-.2.61l.29 2.32-2.11-1a.77.77 0 0 0-.64 0zM27.7 35.26a.75.75 0 0 0-.19.61l.29 2.31-2.11-1a.74.74 0 0 0-.32-.07.71.71 0 0 0-.32.07l-2.11 1 .29-2.31a.76.76 0 0 0-.2-.61l-1.6-1.7 2.29-.44a.76.76 0 0 0 .52-.37l1.13-2.05 1.12 2.05a.76.76 0 0 0 .52.37l2.29.44z" class="color003166 svgShape"/>
</svg>