<svg xmlns="http://www.w3.org/2000/svg" viewBox="0 0 64 64" id="DownloadFolder"><g data-name="Outline" fill="#ff66f4" class="color000000 svgShape"><path d="M22,42A14,14,0,1,0,36,28,14.015,14.015,0,0,0,22,42ZM36,30A12,12,0,1,1,24,42,12.013,12.013,0,0,1,36,30Z" fill="#ff66f4" class="color000000 svgShape"/><path d="M59,14H57V9a1,1,0,0,0-1-1H50V3a1,1,0,0,0-1-1H7A1,1,0,0,0,6,3V14H5.682A3.855,3.855,0,0,0,2,18V57.919A3.927,3.927,0,0,0,5.741,62H58.414A3.862,3.862,0,0,0,62,57.919V17A3,3,0,0,0,59,14Zm-4-4V22H34.358a.831.831,0,0,1-.567-.233l-7.418-6.99A2.823,2.823,0,0,0,24.434,14H15V10ZM5.741,60A1.936,1.936,0,0,1,4,57.919V18a1.863,1.863,0,0,1,1.682-2H6V57a1,1,0,0,0,1,1h3.007a4.454,4.454,0,0,0,.511,2ZM60,57.919C60,59.047,59.273,60,58.414,60H13.586C12.727,60,12,59.047,12,57.919V41a1,1,0,0,0-2,0V56H8V4H48V8H14a1,1,0,0,0-1,1v5.061A3.87,3.87,0,0,0,10,18V33a1,1,0,0,0,2,0V18a1.838,1.838,0,0,1,1.53-2h10.9a.831.831,0,0,1,.568.233l7.418,6.99A2.822,2.822,0,0,0,34.358,24H60ZM60,22H57V16h2a1,1,0,0,1,1,1Z" fill="#ff66f4" class="color000000 svgShape"/><path d="M32 15H52a1 1 0 000-2H32a1 1 0 000 2zM52 17H37a1 1 0 000 2H52a1 1 0 000-2z" fill="#ff66f4" class="color000000 svgShape"/><circle cx="11" cy="37" r="1" fill="#ff66f4" class="color000000 svgShape"/><path d="M28.485,45.091l5.04,4.878A3.52,3.52,0,0,0,38.55,49.9l4.961-4.8a3.243,3.243,0,0,0,.021-4.63,3.453,3.453,0,0,0-4.111-.65V37.319c-.132-4.4-6.682-4.4-6.828-.026v2.529a3.413,3.413,0,0,0-4.1.666A3.185,3.185,0,0,0,28.485,45.091ZM31.923,41.8l.973.944a1.007,1.007,0,0,0,1.7-.718V37.319a1.417,1.417,0,0,1,2.828.026v4.681a1.007,1.007,0,0,0,1.7.718L40.1,41.8a1.413,1.413,0,0,1,1.986.06,1.239,1.239,0,0,1,.038,1.815L37.1,48.531a1.515,1.515,0,0,1-2.12.065l-5.084-4.925C28.615,42.344,30.8,40.627,31.923,41.8Z" fill="#ff66f4" class="color000000 svgShape"/></g></svg>