<svg xmlns="http://www.w3.org/2000/svg" data-name="Layer 4" viewBox="0 0 32 32" id="recycle">
  <path fill="#d55ed0" d="M16,28.25A12.25,12.25,0,1,0,3.75,16,12.26,12.26,0,0,0,16,28.25Zm0-22.5A10.25,10.25,0,1,1,5.75,16,10.26,10.26,0,0,1,16,5.75Z" class="color747987 svgShape"/>
  <path fill="#d55ed0" d="M16 23.25a1 1 0 000-2A5.26 5.26 0 0110.75 16 5.19 5.19 0 0112 12.66l.09.61a1 1 0 001 .86h.13A1 1 0 0014 13l-.33-2.45h0a1 1 0 010-.1 1.14 1.14 0 00-.09-.26s0 0 0 0l-.07-.08-.17-.17a.67.67 0 00-.14-.09L13 9.74l-.17 0-.12 0H9.45a1 1 0 000 2h.72A7.25 7.25 0 0016 23.25zM16 10.75A5.26 5.26 0 0121.25 16 5.19 5.19 0 0120 19.34L20 18.73A1 1 0 0018 19l.33 2.45h0a1 1 0 010 .1 1.14 1.14 0 00.09.26s0 0 0 0a1.24 1.24 0 00.18.21l.05 0a1 1 0 00.22.13l.09 0a.81.81 0 00.31.06h3.26a1 1 0 000-2h-.72A7.25 7.25 0 0016 8.75a1 1 0 000 2z" class="color747987 svgShape"/>
</svg>