<svg xmlns="http://www.w3.org/2000/svg" viewBox="0 0 32 32" id="StartUp"><path fill="#ff61f4" d="M9.6 15.2A1 1 0 0 0 8.73 15L2.45 16.83A2 2 0 0 0 1 18.75V22a2 2 0 0 0 2 2H9a1 1 0 0 0 1-1V16A1 1 0 0 0 9.6 15.2zM29.55 16.83L23.27 15a1 1 0 0 0-.87.16 1 1 0 0 0-.4.8v7a1 1 0 0 0 1 1h6a2 2 0 0 0 2-2V18.75A2 2 0 0 0 29.55 16.83z" class="colorffc661 svgShape"/><path fill="#e44ed9" d="M29.55,16.83,23.27,15a1,1,0,0,0-.87.16,1,1,0,0,0-.4.8v7a1,1,0,0,0,1,1h6a2,2,0,0,0,2-2V18.75A2,2,0,0,0,29.55,16.83Z" class="colore49f4e svgShape"/><path fill="#ff61f4" d="M21.47,29.76l-1-4a1,1,0,0,0-1-.76h-7a1,1,0,0,0-1,.76l-1,4a1,1,0,0,0,.18.86,1,1,0,0,0,.79.38h9a1,1,0,0,0,.79-.38A1,1,0,0,0,21.47,29.76Z" class="colorffc661 svgShape"/><path fill="#e44ed9" d="M21.29,30.62a1,1,0,0,1-.79.38H16V25h3.5a1,1,0,0,1,1,.76L20.78,27l.69,2.76A1,1,0,0,1,21.29,30.62Z" class="colore49f4e svgShape"/><path fill="#ff96f7" d="M24,14A14.9,14.9,0,0,0,16.5,1.13a1,1,0,0,0-1,0A14.92,14.92,0,0,0,8,14V26a1,1,0,0,0,1,1H23a1,1,0,0,0,1-1V14Z" class="color96d7ff svgShape"/><path fill="#ef86e7" d="M24,14V26a1,1,0,0,1-1,1H16V1a1,1,0,0,1,.5.13A14.92,14.92,0,0,1,24,14Z" class="color86c3ef svgShape"/><circle cx="16" cy="16" r="5" fill="#fdeefc" class="coloreef5fd svgShape"/><path fill="#ff66f4" d="M21,16a5,5,0,0,1-5,5V11A5,5,0,0,1,21,16Z" class="colord7e2f2 svgShape"/></svg>